<?xml version="1.0" encoding="UTF-8" standalone="no"?>
<!-- Generator: Adobe Illustrator 19.0.0, SVG Export Plug-In . SVG Version: 6.00 Build 0)  -->

<svg
   version="1.1"
   id="Capa_1"
   x="0px"
   y="0px"
   viewBox="0 0 55 55"
   style="enable-background:new 0 0 55 55;"
   xml:space="preserve"
   sodipodi:docname="icon.svg"
   inkscape:version="1.1.2 (0a00cf5339, 2022-02-04, custom)"
   inkscape:export-filename="C:\Users\Omid\Projects\Applications\CatDb\images\nuget.png"
   inkscape:export-xdpi="223.42"
   inkscape:export-ydpi="223.42"
   xmlns:inkscape="http://www.inkscape.org/namespaces/inkscape"
   xmlns:sodipodi="http://sodipodi.sourceforge.net/DTD/sodipodi-0.dtd"
   xmlns:xlink="http://www.w3.org/1999/xlink"
   xmlns="http://www.w3.org/2000/svg"
   xmlns:svg="http://www.w3.org/2000/svg"><defs
   id="defs37"><linearGradient
     inkscape:collect="always"
     id="linearGradient4225"><stop
       style="stop-color:#231d85;stop-opacity:1"
       offset="0"
       id="stop4221" /><stop
       style="stop-color:#ff008f;stop-opacity:1"
       offset="1"
       id="stop4223" /></linearGradient><linearGradient
     id="linearGradient4151"
     inkscape:swatch="solid"><stop
       style="stop-color:#000000;stop-opacity:1;"
       offset="0"
       id="stop4149" /></linearGradient><inkscape:path-effect
     effect="powerstroke"
     id="path-effect1758"
     is_visible="true"
     lpeversion="1"
     offset_points="9,0.0625"
     not_jump="false"
     sort_points="true"
     interpolator_type="Linear"
     interpolator_beta="0.12138728"
     start_linecap_type="zerowidth"
     linejoin_type="round"
     miter_limit="0.6"
     scale_width="0.4"
     end_linecap_type="zerowidth" /><inkscape:path-effect
     effect="powerstroke"
     id="path-effect1738"
     is_visible="true"
     lpeversion="1"
     offset_points="9,0.0625"
     not_jump="false"
     sort_points="true"
     interpolator_type="CentripetalCatmullRom"
     interpolator_beta="0.14450867"
     start_linecap_type="butt"
     linejoin_type="round"
     miter_limit="4"
     scale_width="1"
     end_linecap_type="zerowidth" /><inkscape:path-effect
     effect="fill_between_many"
     method="bsplinespiro"
     linkedpaths="#path14,0,1"
     id="path-effect1740" /><inkscape:path-effect
     effect="fill_between_many"
     method="bsplinespiro"
     linkedpaths="#path14,0,1"
     id="path-effect1760" /><linearGradient
     inkscape:collect="always"
     xlink:href="#linearGradient4225"
     id="linearGradient4227"
     x1="0.48358166"
     y1="27.5"
     x2="54.516419"
     y2="27.5"
     gradientUnits="userSpaceOnUse"
     gradientTransform="matrix(1.0178995,0,0,1.0178965,-0.49223755,-0.49223606)" /></defs><sodipodi:namedview
   id="namedview35"
   pagecolor="#ffffff"
   bordercolor="#666666"
   borderopacity="1.0"
   inkscape:pageshadow="2"
   inkscape:pageopacity="0.0"
   inkscape:pagecheckerboard="0"
   showgrid="false"
   inkscape:zoom="1.8704545"
   inkscape:cx="-97.035237"
   inkscape:cy="79.125152"
   inkscape:window-width="1920"
   inkscape:window-height="1009"
   inkscape:window-x="-8"
   inkscape:window-y="-8"
   inkscape:window-maximized="1"
   inkscape:current-layer="g2021"
   showguides="true"
   inkscape:guide-bbox="true"><sodipodi:guide
     position="27.502416,37.893687"
     orientation="1,0"
     id="guide1194" /><sodipodi:guide
     position="37.691373,21.051033"
     orientation="0,-1"
     id="guide6494" /></sodipodi:namedview>
<rect
   style="fill:url(#linearGradient4227);fill-opacity:1;stroke:none;stroke-width:0.984474;stroke-miterlimit:4;stroke-dasharray:none;stroke-opacity:1"
   id="rect2045"
   width="55"
   height="55"
   x="0"
   y="0" />















<g
   id="g4442"
   transform="matrix(0.90279465,0,0,0.90279465,2.673147,2.6824392)"><path
     id="path2"
     d="m 27.5,0.59108601 c -15.078081,0 -23.6982138,4.14373429 -24.8552967,8.35643749 -0.084006,0.1443514 -0.1464949,0.3026806 -0.1464949,0.4814014 v 0.490991 11.2927941 0.490991 0.490992 10.801802 0.490991 0.490991 11.783785 c 0,0.159082 0.043191,0.309493 0.1171959,0.443044 1.1810846,4.806803 11.7476537,8.394795 24.8845957,8.394795 13.106939,0 23.656695,-3.573064 24.876783,-8.362191 0.08001,-0.140424 0.125009,-0.302819 0.125009,-0.475648 V 33.978477 33.487486 32.996495 22.194693 21.703701 21.21271 9.9199159 9.4289249 c 0,-0.1787208 -0.06249,-0.33705 -0.146495,-0.4814014 C 51.197214,4.7348203 42.578081,0.59108601 27.5,0.59108601 Z m 0,1.96396409 c 13.555972,0 23.001649,3.8807933 23.001649,7.3648658 0,3.4840731 -9.445677,7.3648661 -23.001649,7.3648661 -13.555972,0 -23.0016483,-3.880793 -23.0016483,-7.3648661 0,-3.4840725 9.4456763,-7.3648658 23.0016483,-7.3648658 z M 4.4983517,13.644544 c 0.1200086,0.107035 0.256737,0.212321 0.3867465,0.318377 0.072006,0.05892 0.1388536,0.117531 0.2148591,0.176449 0.3000214,0.231748 0.623654,0.459875 0.9746792,0.682785 0.073005,0.04616 0.1564332,0.09193 0.2324386,0.13809 0.2940209,0.179704 0.6046839,0.356521 0.9317073,0.529351 0.1210088,0.06382 0.2422049,0.12511 0.3672138,0.187957 0.3650262,0.182649 0.7474442,0.361339 1.150473,0.533186 0.066005,0.02848 0.1263686,0.0569 0.1933734,0.08438 0.4690335,0.195414 0.9664442,0.383188 1.4844814,0.563873 0.14301,0.05008 0.294427,0.09666 0.441438,0.145762 0.412029,0.136496 0.836404,0.266501 1.277436,0.393176 0.159011,0.04518 0.315538,0.09297 0.478549,0.136174 0.585042,0.159081 1.18835,0.311274 1.822396,0.450715 0.08701,0.01964 0.181544,0.03504 0.26955,0.0537 0.55904,0.119801 1.140409,0.229632 1.736454,0.333722 0.202015,0.03534 0.405357,0.07018 0.611372,0.103568 0.56704,0.09133 1.151082,0.174654 1.750125,0.251249 0.154011,0.01964 0.301053,0.0408 0.457064,0.05945 0.744053,0.08837 1.515749,0.16534 2.306806,0.230152 0.195014,0.01572 0.397732,0.02653 0.595746,0.04028 0.633045,0.04517 1.279498,0.08369 1.941545,0.113157 0.241017,0.01079 0.480596,0.01993 0.726614,0.02876 0.862062,0.02848 1.740516,0.04986 2.650581,0.04986 0.910065,0 1.788519,-0.02139 2.650581,-0.04986 0.245018,-0.0088 0.484597,-0.01797 0.726614,-0.02876 0.662047,-0.02946 1.3085,-0.06798 1.941545,-0.113157 0.198014,-0.01473 0.399733,-0.02457 0.595746,-0.04028 0.791057,-0.06382 1.562753,-0.141773 2.306806,-0.230152 0.156011,-0.01866 0.303053,-0.03981 0.457064,-0.05945 0.599043,-0.07659 1.182085,-0.159924 1.750125,-0.251249 0.206015,-0.03338 0.409358,-0.06821 0.611372,-0.103568 0.596044,-0.10409 1.177414,-0.213921 1.736454,-0.333722 0.08801,-0.01865 0.182543,-0.03504 0.26955,-0.0537 0.634046,-0.139441 1.237355,-0.292617 1.822396,-0.450715 0.163011,-0.04419 0.319538,-0.091 0.478549,-0.136174 0.441032,-0.126675 0.865407,-0.25668 1.277436,-0.393176 0.147011,-0.0491 0.298428,-0.09568 0.441438,-0.145762 0.518037,-0.180685 1.016448,-0.368459 1.484482,-0.563873 0.06701,-0.02749 0.127368,-0.05591 0.193373,-0.08438 0.403029,-0.17283 0.785447,-0.350537 1.150473,-0.533186 0.125009,-0.06285 0.247206,-0.124129 0.367213,-0.187957 0.327024,-0.171847 0.637687,-0.348666 0.931708,-0.529351 0.07601,-0.04616 0.159434,-0.09193 0.232438,-0.13809 0.351026,-0.22291 0.674658,-0.450055 0.974681,-0.682785 0.07501,-0.05891 0.141852,-0.11753 0.214857,-0.176449 0.13001,-0.106055 0.266739,-0.211342 0.386748,-0.318377 v 7.290066 0.769091 3.724628 7.290066 0.769091 3.724629 8.258622 c -3.85e-4,0.0012 3.79e-4,0.0027 0,0.0039 -0.0134,0.04208 -0.02347,0.08457 -0.03125,0.128502 -0.567041,3.396677 -9.933463,7.033063 -22.970396,7.033063 -13.036933,0 -22.4033555,-3.636386 -22.9703961,-7.033063 -0.008,-0.04419 -0.018251,-0.08726 -0.031252,-0.128502 V 37.212127 33.4875 32.718408 25.428341 21.703714 20.934623 Z"
     style="stroke:#ffffff;stroke-width:0.990985;stroke-miterlimit:4;stroke-dasharray:none;stroke-opacity:1" /><g
     id="g2021"><path
       d="m 18.9036,19.552694 c -1.721821,0 -3.123294,1.400974 -3.123917,3.123667 0,0.834475 0.325085,1.618821 0.914904,2.208888 0.590067,0.589943 1.374289,0.91478 2.208763,0.91478 1.25e-4,0 4.99e-4,0 6.24e-4,0 1.722319,-1.25e-4 3.123293,-1.401473 3.123293,-3.123668 0,-1.722319 -1.401223,-3.123667 -3.123667,-3.123667 z"
       id="path2-7"
       style="stroke:none;stroke-width:0.125;stroke-miterlimit:4;stroke-dasharray:none" /><path
       d="m 36.084021,19.552694 c -1.721821,0 -3.123294,1.400974 -3.123668,3.123667 0,1.722444 1.401099,3.123668 3.123418,3.123668 h 3.75e-4 c 1.722444,0 3.123667,-1.401349 3.123667,-3.123668 0,-1.722319 -1.401348,-3.123667 -3.123792,-3.123667 z"
       id="path8"
       style="stroke:none;stroke-width:0.125;stroke-miterlimit:4;stroke-dasharray:none" /><path
       d="m 30.578759,44.475321 c -0.377458,-0.134423 -0.647553,-0.409256 -0.742198,-0.55403 v -9.28571 c 1.153699,-1.038354 2.157762,-2.640465 2.65518,-4.150051 0.37908,-1.27291 -0.600792,-2.326103 -2.186568,-2.342813 -1.8742,0 -3.748401,0 -5.622726,0 -1.585776,0.01671 -2.565647,1.070028 -2.186567,2.342813 0.497417,1.509586 1.501355,3.111572 2.65518,4.150051 v 9.28571 c -0.09465,0.144774 -0.36474,0.419482 -0.742199,0.55403 l -5.438424,1.740401 1.428159,4.462542 5.46648,-1.749253 0.04502,-0.01484 c 0.572859,-0.196149 1.106315,-0.472354 1.583781,-0.807665 0.477466,0.335311 1.010796,0.611516 1.58378,0.807665 l 5.511497,1.764092 1.428158,-4.462542 z"
       id="path14"
       style="fill:#ffeaea;fill-opacity:1;fill-rule:nonzero;stroke:#000000;stroke-width:0.78977;stroke-linecap:round;stroke-linejoin:round;stroke-miterlimit:4;stroke-dasharray:none;stroke-dashoffset:0;stroke-opacity:1;paint-order:normal"
       inkscape:linked-fill="path1762" /><rect
       x="35.302914"
       y="30.486029"
       width="12.494921"
       height="2.7691791"
       id="rect20"
       style="stroke:none;stroke-width:0.0960955;stroke-miterlimit:4;stroke-dasharray:none" /><rect
       x="43.29348"
       y="24.966087"
       width="12.494921"
       height="2.7691791"
       id="rect20-3"
       style="stroke:none;stroke-width:0.0960955;stroke-miterlimit:4;stroke-dasharray:none"
       inkscape:transform-center-x="-12.2302"
       inkscape:transform-center-y="3.4154437"
       transform="rotate(15)" /><rect
       x="7.1895342"
       y="30.486029"
       width="12.494921"
       height="2.7691791"
       id="rect32"
       style="stroke:none;stroke-width:0.0960952;stroke-miterlimit:4;stroke-dasharray:none" /><rect
       x="-2.6746814"
       y="39.197865"
       width="12.494921"
       height="2.7691791"
       id="rect32-3"
       style="stroke:none;stroke-width:0.0960952;stroke-miterlimit:4;stroke-dasharray:none"
       inkscape:transform-center-x="12.2302"
       inkscape:transform-center-y="3.4154429"
       transform="rotate(-15)" /></g></g></svg>
